<mxfile host="Electron" modified="2024-05-22T03:56:53.446Z" agent="Mozilla/5.0 (Macintosh; Intel Mac OS X 10_15_7) AppleWebKit/537.36 (KHTML, like Gecko) draw.io/21.8.2 Chrome/114.0.5735.289 Electron/25.8.1 Safari/537.36" etag="kuefSW_Dy98zqZiI8Qyn" version="21.8.2" type="device">
  <diagram name="第 1 页" id="ZSAlQEfKldua3ZsOEi6L">
    <mxGraphModel dx="1230" dy="863" grid="0" gridSize="10" guides="1" tooltips="0" connect="1" arrows="1" fold="1" page="0" pageScale="1" pageWidth="827" pageHeight="1169" math="0" shadow="0">
      <root>
        <mxCell id="0" />
        <mxCell id="1" parent="0" />
        <mxCell id="8THvvRczwCbiawY3CXhj-7" style="edgeStyle=orthogonalEdgeStyle;rounded=0;orthogonalLoop=1;jettySize=auto;html=1;exitX=1;exitY=0.5;exitDx=0;exitDy=0;entryX=0;entryY=0.5;entryDx=0;entryDy=0;" edge="1" parent="1" source="8THvvRczwCbiawY3CXhj-1" target="8THvvRczwCbiawY3CXhj-2">
          <mxGeometry relative="1" as="geometry" />
        </mxCell>
        <mxCell id="8THvvRczwCbiawY3CXhj-8" style="edgeStyle=orthogonalEdgeStyle;rounded=0;orthogonalLoop=1;jettySize=auto;html=1;exitX=1;exitY=0.5;exitDx=0;exitDy=0;entryX=0;entryY=0.5;entryDx=0;entryDy=0;" edge="1" parent="1" source="8THvvRczwCbiawY3CXhj-1" target="8THvvRczwCbiawY3CXhj-3">
          <mxGeometry relative="1" as="geometry" />
        </mxCell>
        <mxCell id="8THvvRczwCbiawY3CXhj-9" style="edgeStyle=orthogonalEdgeStyle;rounded=0;orthogonalLoop=1;jettySize=auto;html=1;exitX=1;exitY=0.5;exitDx=0;exitDy=0;" edge="1" parent="1" source="8THvvRczwCbiawY3CXhj-1" target="8THvvRczwCbiawY3CXhj-4">
          <mxGeometry relative="1" as="geometry" />
        </mxCell>
        <mxCell id="8THvvRczwCbiawY3CXhj-10" style="edgeStyle=orthogonalEdgeStyle;rounded=0;orthogonalLoop=1;jettySize=auto;html=1;exitX=1;exitY=0.5;exitDx=0;exitDy=0;entryX=0;entryY=0.5;entryDx=0;entryDy=0;" edge="1" parent="1" source="8THvvRczwCbiawY3CXhj-1" target="8THvvRczwCbiawY3CXhj-5">
          <mxGeometry relative="1" as="geometry" />
        </mxCell>
        <mxCell id="8THvvRczwCbiawY3CXhj-11" style="edgeStyle=orthogonalEdgeStyle;rounded=0;orthogonalLoop=1;jettySize=auto;html=1;exitX=1;exitY=0.5;exitDx=0;exitDy=0;entryX=0;entryY=0.5;entryDx=0;entryDy=0;" edge="1" parent="1" source="8THvvRczwCbiawY3CXhj-1" target="8THvvRczwCbiawY3CXhj-6">
          <mxGeometry relative="1" as="geometry" />
        </mxCell>
        <mxCell id="8THvvRczwCbiawY3CXhj-1" value="MNIST&lt;br&gt;Split" style="rounded=0;whiteSpace=wrap;html=1;" vertex="1" parent="1">
          <mxGeometry x="40" y="360" width="120" height="40" as="geometry" />
        </mxCell>
        <mxCell id="8THvvRczwCbiawY3CXhj-2" value="Task 1&lt;br&gt;(digit 0, 1)" style="rounded=0;whiteSpace=wrap;html=1;" vertex="1" parent="1">
          <mxGeometry x="240" y="200" width="120" height="40" as="geometry" />
        </mxCell>
        <mxCell id="8THvvRczwCbiawY3CXhj-3" value="Task 2&lt;br&gt;(digit 2, 3)" style="rounded=0;whiteSpace=wrap;html=1;" vertex="1" parent="1">
          <mxGeometry x="240" y="280" width="120" height="40" as="geometry" />
        </mxCell>
        <mxCell id="8THvvRczwCbiawY3CXhj-4" value="Task 2&lt;br style=&quot;border-color: var(--border-color);&quot;&gt;(digit 4, 5)" style="rounded=0;whiteSpace=wrap;html=1;" vertex="1" parent="1">
          <mxGeometry x="240" y="360" width="120" height="40" as="geometry" />
        </mxCell>
        <mxCell id="8THvvRczwCbiawY3CXhj-5" value="Task 4&lt;br style=&quot;border-color: var(--border-color);&quot;&gt;(digit 6, 7)" style="rounded=0;whiteSpace=wrap;html=1;" vertex="1" parent="1">
          <mxGeometry x="240" y="440" width="120" height="40" as="geometry" />
        </mxCell>
        <mxCell id="8THvvRczwCbiawY3CXhj-6" value="Task 5&lt;br&gt;(digit 8, 9)" style="rounded=0;whiteSpace=wrap;html=1;" vertex="1" parent="1">
          <mxGeometry x="240" y="520" width="120" height="40" as="geometry" />
        </mxCell>
        <mxCell id="8THvvRczwCbiawY3CXhj-12" value="&lt;h1&gt;任务描述&lt;/h1&gt;&lt;p&gt;&lt;br&gt;&lt;/p&gt;" style="text;html=1;strokeColor=none;fillColor=none;spacing=5;spacingTop=-20;whiteSpace=wrap;overflow=hidden;rounded=0;" vertex="1" parent="1">
          <mxGeometry x="40" y="80" width="190" height="120" as="geometry" />
        </mxCell>
        <mxCell id="8THvvRczwCbiawY3CXhj-14" value="MLP&lt;br&gt;hidden layer 400&lt;br&gt;3 - layer&lt;br&gt;Adam(0.0005)" style="rounded=0;whiteSpace=wrap;html=1;" vertex="1" parent="1">
          <mxGeometry x="36" y="894" width="200" height="80" as="geometry" />
        </mxCell>
        <mxCell id="8THvvRczwCbiawY3CXhj-19" value="&lt;h1&gt;模型&lt;/h1&gt;" style="text;html=1;strokeColor=none;fillColor=none;spacing=5;spacingTop=-20;whiteSpace=wrap;overflow=hidden;rounded=0;" vertex="1" parent="1">
          <mxGeometry x="36" y="634" width="190" height="120" as="geometry" />
        </mxCell>
        <mxCell id="8THvvRczwCbiawY3CXhj-20" value="&lt;h1&gt;训练过程&lt;/h1&gt;" style="text;html=1;strokeColor=none;fillColor=none;spacing=5;spacingTop=-20;whiteSpace=wrap;overflow=hidden;rounded=0;" vertex="1" parent="1">
          <mxGeometry x="516" y="80" width="190" height="120" as="geometry" />
        </mxCell>
        <mxCell id="8THvvRczwCbiawY3CXhj-29" style="edgeStyle=orthogonalEdgeStyle;rounded=0;orthogonalLoop=1;jettySize=auto;html=1;exitX=1;exitY=0.5;exitDx=0;exitDy=0;" edge="1" parent="1" source="8THvvRczwCbiawY3CXhj-21" target="8THvvRczwCbiawY3CXhj-27">
          <mxGeometry relative="1" as="geometry" />
        </mxCell>
        <mxCell id="8THvvRczwCbiawY3CXhj-21" value="MLP" style="rounded=0;whiteSpace=wrap;html=1;" vertex="1" parent="1">
          <mxGeometry x="676" y="200" width="120" height="40" as="geometry" />
        </mxCell>
        <mxCell id="8THvvRczwCbiawY3CXhj-23" style="edgeStyle=orthogonalEdgeStyle;rounded=0;orthogonalLoop=1;jettySize=auto;html=1;exitX=1;exitY=0.5;exitDx=0;exitDy=0;" edge="1" parent="1" source="8THvvRczwCbiawY3CXhj-22" target="8THvvRczwCbiawY3CXhj-21">
          <mxGeometry relative="1" as="geometry" />
        </mxCell>
        <mxCell id="8THvvRczwCbiawY3CXhj-22" value="Task 1&lt;br&gt;(digit 0, 1)" style="rounded=0;whiteSpace=wrap;html=1;" vertex="1" parent="1">
          <mxGeometry x="516" y="200" width="120" height="40" as="geometry" />
        </mxCell>
        <mxCell id="8THvvRczwCbiawY3CXhj-30" style="edgeStyle=orthogonalEdgeStyle;rounded=0;orthogonalLoop=1;jettySize=auto;html=1;exitX=1;exitY=0.5;exitDx=0;exitDy=0;" edge="1" parent="1" source="8THvvRczwCbiawY3CXhj-24" target="8THvvRczwCbiawY3CXhj-28">
          <mxGeometry relative="1" as="geometry" />
        </mxCell>
        <mxCell id="8THvvRczwCbiawY3CXhj-24" value="MLP_1" style="rounded=0;whiteSpace=wrap;html=1;" vertex="1" parent="1">
          <mxGeometry x="676" y="280" width="120" height="40" as="geometry" />
        </mxCell>
        <mxCell id="8THvvRczwCbiawY3CXhj-26" style="edgeStyle=orthogonalEdgeStyle;rounded=0;orthogonalLoop=1;jettySize=auto;html=1;exitX=1;exitY=0.5;exitDx=0;exitDy=0;" edge="1" parent="1" source="8THvvRczwCbiawY3CXhj-25" target="8THvvRczwCbiawY3CXhj-24">
          <mxGeometry relative="1" as="geometry" />
        </mxCell>
        <mxCell id="8THvvRczwCbiawY3CXhj-25" value="Task 2" style="rounded=0;whiteSpace=wrap;html=1;" vertex="1" parent="1">
          <mxGeometry x="516" y="280" width="120" height="40" as="geometry" />
        </mxCell>
        <mxCell id="8THvvRczwCbiawY3CXhj-27" value="MLP_1" style="rounded=0;whiteSpace=wrap;html=1;" vertex="1" parent="1">
          <mxGeometry x="836" y="200" width="120" height="40" as="geometry" />
        </mxCell>
        <mxCell id="8THvvRczwCbiawY3CXhj-28" value="MLP_2" style="rounded=0;whiteSpace=wrap;html=1;" vertex="1" parent="1">
          <mxGeometry x="836" y="280" width="120" height="40" as="geometry" />
        </mxCell>
        <mxCell id="8THvvRczwCbiawY3CXhj-31" style="edgeStyle=orthogonalEdgeStyle;rounded=0;orthogonalLoop=1;jettySize=auto;html=1;exitX=1;exitY=0.5;exitDx=0;exitDy=0;" edge="1" parent="1" source="8THvvRczwCbiawY3CXhj-32" target="8THvvRczwCbiawY3CXhj-35">
          <mxGeometry relative="1" as="geometry" />
        </mxCell>
        <mxCell id="8THvvRczwCbiawY3CXhj-32" value="MLP_2" style="rounded=0;whiteSpace=wrap;html=1;" vertex="1" parent="1">
          <mxGeometry x="676" y="360" width="120" height="40" as="geometry" />
        </mxCell>
        <mxCell id="8THvvRczwCbiawY3CXhj-33" style="edgeStyle=orthogonalEdgeStyle;rounded=0;orthogonalLoop=1;jettySize=auto;html=1;exitX=1;exitY=0.5;exitDx=0;exitDy=0;" edge="1" parent="1" source="8THvvRczwCbiawY3CXhj-34" target="8THvvRczwCbiawY3CXhj-32">
          <mxGeometry relative="1" as="geometry" />
        </mxCell>
        <mxCell id="8THvvRczwCbiawY3CXhj-34" value="Task 3" style="rounded=0;whiteSpace=wrap;html=1;" vertex="1" parent="1">
          <mxGeometry x="516" y="360" width="120" height="40" as="geometry" />
        </mxCell>
        <mxCell id="8THvvRczwCbiawY3CXhj-35" value="MLP_3" style="rounded=0;whiteSpace=wrap;html=1;" vertex="1" parent="1">
          <mxGeometry x="836" y="360" width="120" height="40" as="geometry" />
        </mxCell>
        <mxCell id="8THvvRczwCbiawY3CXhj-36" style="edgeStyle=orthogonalEdgeStyle;rounded=0;orthogonalLoop=1;jettySize=auto;html=1;exitX=1;exitY=0.5;exitDx=0;exitDy=0;" edge="1" parent="1" source="8THvvRczwCbiawY3CXhj-37" target="8THvvRczwCbiawY3CXhj-40">
          <mxGeometry relative="1" as="geometry" />
        </mxCell>
        <mxCell id="8THvvRczwCbiawY3CXhj-37" value="MLP_3" style="rounded=0;whiteSpace=wrap;html=1;" vertex="1" parent="1">
          <mxGeometry x="676" y="440" width="120" height="40" as="geometry" />
        </mxCell>
        <mxCell id="8THvvRczwCbiawY3CXhj-38" style="edgeStyle=orthogonalEdgeStyle;rounded=0;orthogonalLoop=1;jettySize=auto;html=1;exitX=1;exitY=0.5;exitDx=0;exitDy=0;" edge="1" parent="1" source="8THvvRczwCbiawY3CXhj-39" target="8THvvRczwCbiawY3CXhj-37">
          <mxGeometry relative="1" as="geometry" />
        </mxCell>
        <mxCell id="8THvvRczwCbiawY3CXhj-39" value="Task 4" style="rounded=0;whiteSpace=wrap;html=1;" vertex="1" parent="1">
          <mxGeometry x="516" y="440" width="120" height="40" as="geometry" />
        </mxCell>
        <mxCell id="8THvvRczwCbiawY3CXhj-40" value="MLP_4" style="rounded=0;whiteSpace=wrap;html=1;" vertex="1" parent="1">
          <mxGeometry x="836" y="440" width="120" height="40" as="geometry" />
        </mxCell>
        <mxCell id="8THvvRczwCbiawY3CXhj-41" style="edgeStyle=orthogonalEdgeStyle;rounded=0;orthogonalLoop=1;jettySize=auto;html=1;exitX=1;exitY=0.5;exitDx=0;exitDy=0;" edge="1" parent="1" source="8THvvRczwCbiawY3CXhj-42" target="8THvvRczwCbiawY3CXhj-45">
          <mxGeometry relative="1" as="geometry" />
        </mxCell>
        <mxCell id="8THvvRczwCbiawY3CXhj-42" value="MLP_4" style="rounded=0;whiteSpace=wrap;html=1;" vertex="1" parent="1">
          <mxGeometry x="676" y="520" width="120" height="40" as="geometry" />
        </mxCell>
        <mxCell id="8THvvRczwCbiawY3CXhj-43" style="edgeStyle=orthogonalEdgeStyle;rounded=0;orthogonalLoop=1;jettySize=auto;html=1;exitX=1;exitY=0.5;exitDx=0;exitDy=0;" edge="1" parent="1" source="8THvvRczwCbiawY3CXhj-44" target="8THvvRczwCbiawY3CXhj-42">
          <mxGeometry relative="1" as="geometry" />
        </mxCell>
        <mxCell id="8THvvRczwCbiawY3CXhj-44" value="Task 5" style="rounded=0;whiteSpace=wrap;html=1;" vertex="1" parent="1">
          <mxGeometry x="516" y="520" width="120" height="40" as="geometry" />
        </mxCell>
        <mxCell id="8THvvRczwCbiawY3CXhj-45" value="MLP_5" style="rounded=0;whiteSpace=wrap;html=1;" vertex="1" parent="1">
          <mxGeometry x="836" y="520" width="120" height="40" as="geometry" />
        </mxCell>
        <mxCell id="8THvvRczwCbiawY3CXhj-46" value="&lt;h1&gt;评估&lt;/h1&gt;" style="text;html=1;strokeColor=none;fillColor=none;spacing=5;spacingTop=-20;whiteSpace=wrap;overflow=hidden;rounded=0;" vertex="1" parent="1">
          <mxGeometry x="1040" y="80" width="190" height="120" as="geometry" />
        </mxCell>
        <mxCell id="8THvvRczwCbiawY3CXhj-60" style="edgeStyle=orthogonalEdgeStyle;rounded=0;orthogonalLoop=1;jettySize=auto;html=1;exitX=1;exitY=0.5;exitDx=0;exitDy=0;" edge="1" parent="1" source="8THvvRczwCbiawY3CXhj-47" target="8THvvRczwCbiawY3CXhj-59">
          <mxGeometry relative="1" as="geometry" />
        </mxCell>
        <mxCell id="8THvvRczwCbiawY3CXhj-47" value="MLP_5" style="rounded=0;whiteSpace=wrap;html=1;" vertex="1" parent="1">
          <mxGeometry x="1200" y="360" width="120" height="40" as="geometry" />
        </mxCell>
        <mxCell id="8THvvRczwCbiawY3CXhj-53" style="edgeStyle=orthogonalEdgeStyle;rounded=0;orthogonalLoop=1;jettySize=auto;html=1;exitX=1;exitY=0.5;exitDx=0;exitDy=0;entryX=0;entryY=0.5;entryDx=0;entryDy=0;" edge="1" parent="1" source="8THvvRczwCbiawY3CXhj-48" target="8THvvRczwCbiawY3CXhj-47">
          <mxGeometry relative="1" as="geometry" />
        </mxCell>
        <mxCell id="8THvvRczwCbiawY3CXhj-48" value="Task 1&lt;br&gt;(digit 0, 1)" style="rounded=0;whiteSpace=wrap;html=1;" vertex="1" parent="1">
          <mxGeometry x="1040" y="200" width="120" height="40" as="geometry" />
        </mxCell>
        <mxCell id="8THvvRczwCbiawY3CXhj-54" style="edgeStyle=orthogonalEdgeStyle;rounded=0;orthogonalLoop=1;jettySize=auto;html=1;exitX=1;exitY=0.5;exitDx=0;exitDy=0;entryX=0;entryY=0.5;entryDx=0;entryDy=0;" edge="1" parent="1" source="8THvvRczwCbiawY3CXhj-49" target="8THvvRczwCbiawY3CXhj-47">
          <mxGeometry relative="1" as="geometry" />
        </mxCell>
        <mxCell id="8THvvRczwCbiawY3CXhj-49" value="Task 2" style="rounded=0;whiteSpace=wrap;html=1;" vertex="1" parent="1">
          <mxGeometry x="1040" y="280" width="120" height="40" as="geometry" />
        </mxCell>
        <mxCell id="8THvvRczwCbiawY3CXhj-55" style="edgeStyle=orthogonalEdgeStyle;rounded=0;orthogonalLoop=1;jettySize=auto;html=1;exitX=1;exitY=0.5;exitDx=0;exitDy=0;entryX=0;entryY=0.5;entryDx=0;entryDy=0;" edge="1" parent="1" source="8THvvRczwCbiawY3CXhj-50" target="8THvvRczwCbiawY3CXhj-47">
          <mxGeometry relative="1" as="geometry" />
        </mxCell>
        <mxCell id="8THvvRczwCbiawY3CXhj-50" value="Task 3" style="rounded=0;whiteSpace=wrap;html=1;" vertex="1" parent="1">
          <mxGeometry x="1040" y="360" width="120" height="40" as="geometry" />
        </mxCell>
        <mxCell id="8THvvRczwCbiawY3CXhj-56" style="edgeStyle=orthogonalEdgeStyle;rounded=0;orthogonalLoop=1;jettySize=auto;html=1;exitX=1;exitY=0.5;exitDx=0;exitDy=0;entryX=0;entryY=0.5;entryDx=0;entryDy=0;" edge="1" parent="1" source="8THvvRczwCbiawY3CXhj-51" target="8THvvRczwCbiawY3CXhj-47">
          <mxGeometry relative="1" as="geometry" />
        </mxCell>
        <mxCell id="8THvvRczwCbiawY3CXhj-51" value="Task 4" style="rounded=0;whiteSpace=wrap;html=1;" vertex="1" parent="1">
          <mxGeometry x="1040" y="440" width="120" height="40" as="geometry" />
        </mxCell>
        <mxCell id="8THvvRczwCbiawY3CXhj-57" style="edgeStyle=orthogonalEdgeStyle;rounded=0;orthogonalLoop=1;jettySize=auto;html=1;exitX=1;exitY=0.5;exitDx=0;exitDy=0;entryX=0;entryY=0.5;entryDx=0;entryDy=0;" edge="1" parent="1" source="8THvvRczwCbiawY3CXhj-52" target="8THvvRczwCbiawY3CXhj-47">
          <mxGeometry relative="1" as="geometry" />
        </mxCell>
        <mxCell id="8THvvRczwCbiawY3CXhj-52" value="Task 5" style="rounded=0;whiteSpace=wrap;html=1;" vertex="1" parent="1">
          <mxGeometry x="1040" y="520" width="120" height="40" as="geometry" />
        </mxCell>
        <mxCell id="8THvvRczwCbiawY3CXhj-58" style="edgeStyle=orthogonalEdgeStyle;rounded=0;orthogonalLoop=1;jettySize=auto;html=1;exitX=0.5;exitY=1;exitDx=0;exitDy=0;" edge="1" parent="1" source="8THvvRczwCbiawY3CXhj-50" target="8THvvRczwCbiawY3CXhj-50">
          <mxGeometry relative="1" as="geometry" />
        </mxCell>
        <mxCell id="8THvvRczwCbiawY3CXhj-59" value="Average Acc on 5 task" style="rounded=0;whiteSpace=wrap;html=1;" vertex="1" parent="1">
          <mxGeometry x="1360" y="360" width="120" height="40" as="geometry" />
        </mxCell>
        <mxCell id="8THvvRczwCbiawY3CXhj-62" value="&lt;h1&gt;我的训练过程&lt;/h1&gt;" style="text;html=1;strokeColor=none;fillColor=none;spacing=5;spacingTop=-20;whiteSpace=wrap;overflow=hidden;rounded=0;" vertex="1" parent="1">
          <mxGeometry x="396" y="634" width="190" height="120" as="geometry" />
        </mxCell>
        <mxCell id="8THvvRczwCbiawY3CXhj-88" style="edgeStyle=orthogonalEdgeStyle;rounded=0;orthogonalLoop=1;jettySize=auto;html=1;exitX=1;exitY=0.5;exitDx=0;exitDy=0;entryX=0;entryY=0.5;entryDx=0;entryDy=0;" edge="1" parent="1" source="8THvvRczwCbiawY3CXhj-64" target="8THvvRczwCbiawY3CXhj-71">
          <mxGeometry relative="1" as="geometry" />
        </mxCell>
        <mxCell id="8THvvRczwCbiawY3CXhj-91" style="edgeStyle=orthogonalEdgeStyle;rounded=0;orthogonalLoop=1;jettySize=auto;html=1;exitX=1;exitY=0.5;exitDx=0;exitDy=0;entryX=0;entryY=0.5;entryDx=0;entryDy=0;" edge="1" parent="1" source="8THvvRczwCbiawY3CXhj-64" target="8THvvRczwCbiawY3CXhj-90">
          <mxGeometry relative="1" as="geometry" />
        </mxCell>
        <mxCell id="8THvvRczwCbiawY3CXhj-64" value="MLP" style="rounded=0;whiteSpace=wrap;html=1;" vertex="1" parent="1">
          <mxGeometry x="556" y="754" width="120" height="40" as="geometry" />
        </mxCell>
        <mxCell id="8THvvRczwCbiawY3CXhj-65" style="edgeStyle=orthogonalEdgeStyle;rounded=0;orthogonalLoop=1;jettySize=auto;html=1;exitX=1;exitY=0.5;exitDx=0;exitDy=0;" edge="1" parent="1" source="8THvvRczwCbiawY3CXhj-66" target="8THvvRczwCbiawY3CXhj-64">
          <mxGeometry relative="1" as="geometry" />
        </mxCell>
        <mxCell id="8THvvRczwCbiawY3CXhj-66" value="Task 1&lt;br&gt;(digit 0, 1)" style="rounded=0;whiteSpace=wrap;html=1;" vertex="1" parent="1">
          <mxGeometry x="396" y="754" width="120" height="40" as="geometry" />
        </mxCell>
        <mxCell id="8THvvRczwCbiawY3CXhj-93" style="edgeStyle=orthogonalEdgeStyle;rounded=0;orthogonalLoop=1;jettySize=auto;html=1;exitX=1;exitY=0.5;exitDx=0;exitDy=0;entryX=0;entryY=0.5;entryDx=0;entryDy=0;" edge="1" parent="1" source="8THvvRczwCbiawY3CXhj-68" target="8THvvRczwCbiawY3CXhj-72">
          <mxGeometry relative="1" as="geometry" />
        </mxCell>
        <mxCell id="8THvvRczwCbiawY3CXhj-95" style="edgeStyle=orthogonalEdgeStyle;rounded=0;orthogonalLoop=1;jettySize=auto;html=1;exitX=1;exitY=0.5;exitDx=0;exitDy=0;" edge="1" parent="1" source="8THvvRczwCbiawY3CXhj-68" target="8THvvRczwCbiawY3CXhj-94">
          <mxGeometry relative="1" as="geometry" />
        </mxCell>
        <mxCell id="8THvvRczwCbiawY3CXhj-68" value="MLP_{n - 1}" style="rounded=0;whiteSpace=wrap;html=1;" vertex="1" parent="1">
          <mxGeometry x="556" y="954" width="120" height="40" as="geometry" />
        </mxCell>
        <mxCell id="8THvvRczwCbiawY3CXhj-69" style="edgeStyle=orthogonalEdgeStyle;rounded=0;orthogonalLoop=1;jettySize=auto;html=1;exitX=1;exitY=0.5;exitDx=0;exitDy=0;" edge="1" parent="1" source="8THvvRczwCbiawY3CXhj-70" target="8THvvRczwCbiawY3CXhj-68">
          <mxGeometry relative="1" as="geometry" />
        </mxCell>
        <mxCell id="8THvvRczwCbiawY3CXhj-70" value="Task n" style="rounded=0;whiteSpace=wrap;html=1;" vertex="1" parent="1">
          <mxGeometry x="396" y="954" width="120" height="40" as="geometry" />
        </mxCell>
        <mxCell id="8THvvRczwCbiawY3CXhj-71" value="MLP_1" style="rounded=0;whiteSpace=wrap;html=1;" vertex="1" parent="1">
          <mxGeometry x="716" y="794" width="120" height="40" as="geometry" />
        </mxCell>
        <mxCell id="8THvvRczwCbiawY3CXhj-72" value="MLP_{n}" style="rounded=0;whiteSpace=wrap;html=1;" vertex="1" parent="1">
          <mxGeometry x="716" y="994" width="120" height="40" as="geometry" />
        </mxCell>
        <mxCell id="8THvvRczwCbiawY3CXhj-90" value="leader MLP&lt;br&gt;(eval by val acc)" style="rounded=0;whiteSpace=wrap;html=1;" vertex="1" parent="1">
          <mxGeometry x="716" y="714" width="120" height="40" as="geometry" />
        </mxCell>
        <mxCell id="8THvvRczwCbiawY3CXhj-92" value="在第一次训练时，选择val loss最小的作为leader model&lt;br&gt;&lt;br&gt;MLP_1为正常梯度下降的model" style="text;html=1;strokeColor=none;fillColor=none;align=left;verticalAlign=middle;whiteSpace=wrap;rounded=0;" vertex="1" parent="1">
          <mxGeometry x="876" y="714" width="280" height="110" as="geometry" />
        </mxCell>
        <mxCell id="8THvvRczwCbiawY3CXhj-94" value="leader MLP&lt;br style=&quot;border-color: var(--border-color);&quot;&gt;(eval by val acc)" style="rounded=0;whiteSpace=wrap;html=1;" vertex="1" parent="1">
          <mxGeometry x="716" y="914" width="120" height="40" as="geometry" />
        </mxCell>
        <mxCell id="8THvvRczwCbiawY3CXhj-96" value="前30个bacth作为预热阶段，预热阶段的MLP的更新需要与上个task的leader有reg loss（对上个阶段的weight的保护）。&lt;br&gt;&lt;br&gt;在第30个batch,选择在预热阶段中最优秀的MLP作为这个task的leader。&lt;br&gt;&lt;br&gt;leader选择完成之后，MLP需要与leader有reg loss，训练过程中，如果某个model的val loss更小，那么leader更替为val loss更小的model&lt;br&gt;&lt;br&gt;最终模型为leader" style="text;html=1;strokeColor=none;fillColor=none;align=left;verticalAlign=middle;whiteSpace=wrap;rounded=0;" vertex="1" parent="1">
          <mxGeometry x="876" y="913" width="280" height="190" as="geometry" />
        </mxCell>
        <mxCell id="8THvvRczwCbiawY3CXhj-97" value="&lt;h1&gt;Loss&lt;/h1&gt;" style="text;html=1;strokeColor=none;fillColor=none;spacing=5;spacingTop=-20;whiteSpace=wrap;overflow=hidden;rounded=0;" vertex="1" parent="1">
          <mxGeometry x="1236" y="634" width="190" height="120" as="geometry" />
        </mxCell>
        <mxCell id="8THvvRczwCbiawY3CXhj-101" style="edgeStyle=orthogonalEdgeStyle;rounded=0;orthogonalLoop=1;jettySize=auto;html=1;exitX=1;exitY=0.5;exitDx=0;exitDy=0;entryX=0;entryY=0.5;entryDx=0;entryDy=0;" edge="1" parent="1" source="8THvvRczwCbiawY3CXhj-98" target="8THvvRczwCbiawY3CXhj-100">
          <mxGeometry relative="1" as="geometry" />
        </mxCell>
        <mxCell id="8THvvRczwCbiawY3CXhj-98" value="Leader" style="rounded=0;whiteSpace=wrap;html=1;" vertex="1" parent="1">
          <mxGeometry x="1236" y="834" width="120" height="40" as="geometry" />
        </mxCell>
        <mxCell id="8THvvRczwCbiawY3CXhj-102" style="edgeStyle=orthogonalEdgeStyle;rounded=0;orthogonalLoop=1;jettySize=auto;html=1;exitX=1;exitY=0.5;exitDx=0;exitDy=0;entryX=0;entryY=0.5;entryDx=0;entryDy=0;" edge="1" parent="1" source="8THvvRczwCbiawY3CXhj-99" target="8THvvRczwCbiawY3CXhj-100">
          <mxGeometry relative="1" as="geometry" />
        </mxCell>
        <mxCell id="8THvvRczwCbiawY3CXhj-99" value="MLP" style="rounded=0;whiteSpace=wrap;html=1;" vertex="1" parent="1">
          <mxGeometry x="1236" y="914" width="120" height="40" as="geometry" />
        </mxCell>
        <mxCell id="8THvvRczwCbiawY3CXhj-104" style="edgeStyle=orthogonalEdgeStyle;rounded=0;orthogonalLoop=1;jettySize=auto;html=1;exitX=1;exitY=0.5;exitDx=0;exitDy=0;entryX=0;entryY=0.5;entryDx=0;entryDy=0;" edge="1" parent="1" source="8THvvRczwCbiawY3CXhj-100" target="8THvvRczwCbiawY3CXhj-103">
          <mxGeometry relative="1" as="geometry" />
        </mxCell>
        <mxCell id="8THvvRczwCbiawY3CXhj-100" value="norm" style="rounded=0;whiteSpace=wrap;html=1;" vertex="1" parent="1">
          <mxGeometry x="1396" y="874" width="120" height="40" as="geometry" />
        </mxCell>
        <mxCell id="8THvvRczwCbiawY3CXhj-108" style="edgeStyle=orthogonalEdgeStyle;rounded=0;orthogonalLoop=1;jettySize=auto;html=1;exitX=1;exitY=0.5;exitDx=0;exitDy=0;entryX=0;entryY=0.5;entryDx=0;entryDy=0;" edge="1" parent="1" source="8THvvRczwCbiawY3CXhj-103" target="8THvvRczwCbiawY3CXhj-106">
          <mxGeometry relative="1" as="geometry" />
        </mxCell>
        <mxCell id="8THvvRczwCbiawY3CXhj-103" value="weight Loss" style="rounded=0;whiteSpace=wrap;html=1;" vertex="1" parent="1">
          <mxGeometry x="1556" y="874" width="120" height="40" as="geometry" />
        </mxCell>
        <mxCell id="8THvvRczwCbiawY3CXhj-107" style="edgeStyle=orthogonalEdgeStyle;rounded=0;orthogonalLoop=1;jettySize=auto;html=1;exitX=1;exitY=0.5;exitDx=0;exitDy=0;entryX=0;entryY=0.5;entryDx=0;entryDy=0;" edge="1" parent="1" source="8THvvRczwCbiawY3CXhj-105" target="8THvvRczwCbiawY3CXhj-106">
          <mxGeometry relative="1" as="geometry" />
        </mxCell>
        <mxCell id="8THvvRczwCbiawY3CXhj-105" value="classification loss" style="rounded=0;whiteSpace=wrap;html=1;" vertex="1" parent="1">
          <mxGeometry x="1556" y="794" width="120" height="40" as="geometry" />
        </mxCell>
        <mxCell id="8THvvRczwCbiawY3CXhj-106" value="Loss" style="rounded=0;whiteSpace=wrap;html=1;" vertex="1" parent="1">
          <mxGeometry x="1716" y="834" width="120" height="40" as="geometry" />
        </mxCell>
        <mxCell id="8THvvRczwCbiawY3CXhj-109" value="Experiment 1" style="text;html=1;strokeColor=none;fillColor=none;align=center;verticalAlign=middle;whiteSpace=wrap;rounded=0;" vertex="1" parent="1">
          <mxGeometry x="1208" y="732" width="130" height="30" as="geometry" />
        </mxCell>
        <mxCell id="8THvvRczwCbiawY3CXhj-110" value="Experiment 2" style="text;html=1;strokeColor=none;fillColor=none;align=center;verticalAlign=middle;whiteSpace=wrap;rounded=0;" vertex="1" parent="1">
          <mxGeometry x="1209" y="1006" width="130" height="30" as="geometry" />
        </mxCell>
        <mxCell id="8THvvRczwCbiawY3CXhj-137" style="edgeStyle=orthogonalEdgeStyle;rounded=0;orthogonalLoop=1;jettySize=auto;html=1;exitX=1;exitY=0.5;exitDx=0;exitDy=0;" edge="1" parent="1" source="8THvvRczwCbiawY3CXhj-112" target="8THvvRczwCbiawY3CXhj-131">
          <mxGeometry relative="1" as="geometry" />
        </mxCell>
        <mxCell id="8THvvRczwCbiawY3CXhj-112" value="Leader" style="rounded=0;whiteSpace=wrap;html=1;" vertex="1" parent="1">
          <mxGeometry x="1396" y="1154" width="120" height="40" as="geometry" />
        </mxCell>
        <mxCell id="8THvvRczwCbiawY3CXhj-138" style="edgeStyle=orthogonalEdgeStyle;rounded=0;orthogonalLoop=1;jettySize=auto;html=1;exitX=1;exitY=0.5;exitDx=0;exitDy=0;" edge="1" parent="1" source="8THvvRczwCbiawY3CXhj-114" target="8THvvRczwCbiawY3CXhj-132">
          <mxGeometry relative="1" as="geometry" />
        </mxCell>
        <mxCell id="8THvvRczwCbiawY3CXhj-114" value="MLP" style="rounded=0;whiteSpace=wrap;html=1;" vertex="1" parent="1">
          <mxGeometry x="1396" y="1234" width="120" height="40" as="geometry" />
        </mxCell>
        <mxCell id="8THvvRczwCbiawY3CXhj-123" value="mean abs difference" style="rounded=0;whiteSpace=wrap;html=1;" vertex="1" parent="1">
          <mxGeometry x="1757" y="1194" width="120" height="40" as="geometry" />
        </mxCell>
        <mxCell id="8THvvRczwCbiawY3CXhj-124" style="edgeStyle=orthogonalEdgeStyle;rounded=0;orthogonalLoop=1;jettySize=auto;html=1;exitX=1;exitY=0.5;exitDx=0;exitDy=0;entryX=0;entryY=0.5;entryDx=0;entryDy=0;" edge="1" parent="1" target="8THvvRczwCbiawY3CXhj-128">
          <mxGeometry relative="1" as="geometry">
            <mxPoint x="1877" y="1214" as="sourcePoint" />
          </mxGeometry>
        </mxCell>
        <mxCell id="8THvvRczwCbiawY3CXhj-126" style="edgeStyle=orthogonalEdgeStyle;rounded=0;orthogonalLoop=1;jettySize=auto;html=1;exitX=1;exitY=0.5;exitDx=0;exitDy=0;entryX=0;entryY=0.5;entryDx=0;entryDy=0;" edge="1" parent="1" source="8THvvRczwCbiawY3CXhj-127" target="8THvvRczwCbiawY3CXhj-128">
          <mxGeometry relative="1" as="geometry" />
        </mxCell>
        <mxCell id="8THvvRczwCbiawY3CXhj-127" value="classification loss" style="rounded=0;whiteSpace=wrap;html=1;" vertex="1" parent="1">
          <mxGeometry x="1757" y="1114" width="120" height="40" as="geometry" />
        </mxCell>
        <mxCell id="8THvvRczwCbiawY3CXhj-128" value="Loss" style="rounded=0;whiteSpace=wrap;html=1;" vertex="1" parent="1">
          <mxGeometry x="1917" y="1154" width="120" height="40" as="geometry" />
        </mxCell>
        <mxCell id="8THvvRczwCbiawY3CXhj-133" style="edgeStyle=orthogonalEdgeStyle;rounded=0;orthogonalLoop=1;jettySize=auto;html=1;exitX=1;exitY=0.5;exitDx=0;exitDy=0;entryX=0;entryY=0.5;entryDx=0;entryDy=0;" edge="1" parent="1" source="8THvvRczwCbiawY3CXhj-129" target="8THvvRczwCbiawY3CXhj-112">
          <mxGeometry relative="1" as="geometry" />
        </mxCell>
        <mxCell id="8THvvRczwCbiawY3CXhj-134" style="edgeStyle=orthogonalEdgeStyle;rounded=0;orthogonalLoop=1;jettySize=auto;html=1;exitX=1;exitY=0.5;exitDx=0;exitDy=0;entryX=0;entryY=0.5;entryDx=0;entryDy=0;" edge="1" parent="1" source="8THvvRczwCbiawY3CXhj-129" target="8THvvRczwCbiawY3CXhj-114">
          <mxGeometry relative="1" as="geometry" />
        </mxCell>
        <mxCell id="8THvvRczwCbiawY3CXhj-129" value="image" style="rounded=0;whiteSpace=wrap;html=1;" vertex="1" parent="1">
          <mxGeometry x="1236" y="1194" width="120" height="40" as="geometry" />
        </mxCell>
        <mxCell id="8THvvRczwCbiawY3CXhj-135" style="edgeStyle=orthogonalEdgeStyle;rounded=0;orthogonalLoop=1;jettySize=auto;html=1;exitX=1;exitY=0.5;exitDx=0;exitDy=0;entryX=0;entryY=0.5;entryDx=0;entryDy=0;" edge="1" parent="1" source="8THvvRczwCbiawY3CXhj-131" target="8THvvRczwCbiawY3CXhj-123">
          <mxGeometry relative="1" as="geometry" />
        </mxCell>
        <mxCell id="8THvvRczwCbiawY3CXhj-131" value="Leader Output" style="rounded=0;whiteSpace=wrap;html=1;" vertex="1" parent="1">
          <mxGeometry x="1556" y="1154" width="120" height="40" as="geometry" />
        </mxCell>
        <mxCell id="8THvvRczwCbiawY3CXhj-136" style="edgeStyle=orthogonalEdgeStyle;rounded=0;orthogonalLoop=1;jettySize=auto;html=1;exitX=1;exitY=0.5;exitDx=0;exitDy=0;entryX=0;entryY=0.5;entryDx=0;entryDy=0;" edge="1" parent="1" source="8THvvRczwCbiawY3CXhj-132" target="8THvvRczwCbiawY3CXhj-123">
          <mxGeometry relative="1" as="geometry" />
        </mxCell>
        <mxCell id="8THvvRczwCbiawY3CXhj-132" value="MLP Output" style="rounded=0;whiteSpace=wrap;html=1;" vertex="1" parent="1">
          <mxGeometry x="1556" y="1234" width="120" height="40" as="geometry" />
        </mxCell>
        <mxCell id="8THvvRczwCbiawY3CXhj-139" value="Acc of all five task: 34" style="text;html=1;strokeColor=none;fillColor=none;align=center;verticalAlign=middle;whiteSpace=wrap;rounded=0;" vertex="1" parent="1">
          <mxGeometry x="1326" y="732" width="200" height="30" as="geometry" />
        </mxCell>
        <mxCell id="8THvvRczwCbiawY3CXhj-141" value="Acc of all five task: 61" style="text;html=1;strokeColor=none;fillColor=none;align=center;verticalAlign=middle;whiteSpace=wrap;rounded=0;" vertex="1" parent="1">
          <mxGeometry x="1324" y="1010" width="200" height="30" as="geometry" />
        </mxCell>
      </root>
    </mxGraphModel>
  </diagram>
</mxfile>
